<?xml version="1.0" standalone="no"?>
<!DOCTYPE svg PUBLIC "-//W3C//DTD SVG 20010904//EN"
 "http://www.w3.org/TR/2001/REC-SVG-20010904/DTD/svg10.dtd">
<svg version="1.0" xmlns="http://www.w3.org/2000/svg"
 width="663.000000pt" height="450.000000pt" viewBox="0 0 663.000000 450.000000"
 preserveAspectRatio="xMidYMid meet">

<g transform="translate(0.000000,450.000000) scale(0.100000,-0.100000)"
fill="#000000" stroke="none">
<path d="M3169 4337 c-146 -61 -228 -182 -229 -339 l0 -77 -42 -29 c-59 -41
-141 -130 -169 -183 -31 -61 -38 -184 -14 -264 18 -63 57 -147 103 -218 42
-66 136 -180 140 -168 2 5 -8 47 -22 93 -14 46 -26 93 -26 104 0 33 91 154
171 228 81 75 241 186 268 186 22 0 96 -47 199 -127 85 -66 193 -184 227 -246
18 -35 18 -36 -4 -117 -12 -44 -25 -88 -28 -97 -5 -11 -3 -14 6 -8 10 6 11 3
2 -13 -28 -53 2 -100 83 -127 44 -15 56 -24 56 -40 0 -25 -18 -45 -40 -45 -23
0 -54 36 -45 51 5 7 3 10 -5 7 -21 -7 -21 -21 0 -55 35 -57 94 -35 121 44 16
48 7 63 -39 63 -47 0 -62 14 -62 57 0 26 10 45 44 81 62 67 70 87 72 177 1 50
10 107 24 153 26 87 25 185 -5 246 -29 60 -122 155 -205 208 l-75 48 -1 69
c-3 160 -92 285 -240 341 -77 28 -190 27 -265 -3z"/>
<path d="M3471 3447 c-24 -24 -11 -43 38 -56 27 -7 64 -23 82 -37 38 -27 43
-26 30 7 -21 55 -123 113 -150 86z"/>
<path d="M3102 3430 c-28 -17 -72 -73 -72 -92 0 -4 19 4 43 17 23 13 64 29 90
36 40 10 48 15 45 33 -4 30 -62 33 -106 6z"/>
<path d="M3110 3251 c-5 -11 -10 -34 -10 -51 0 -44 17 -70 45 -70 28 0 45 26
45 67 0 59 -56 97 -80 54z m29 -33 c5 -13 7 -25 5 -27 -7 -7 -34 21 -34 35 0
22 20 16 29 -8z"/>
<path d="M3499 3249 c-24 -46 -8 -119 27 -119 38 0 63 97 32 128 -19 19 -46
14 -59 -9z m29 -35 c0 -23 -2 -24 -16 -11 -8 9 -12 23 -8 32 8 23 24 10 24
-21z"/>
<path d="M3040 3052 c6 -13 14 -21 18 -18 3 4 -2 14 -12 24 -18 16 -18 16 -6
-6z"/>
<path d="M3189 2963 c12 -23 50 -57 79 -72 56 -29 162 -3 207 51 36 43 24 46
-31 9 -40 -26 -57 -31 -108 -31 -59 0 -87 10 -124 47 -20 19 -35 16 -23 -4z"/>
<path d="M3290 2860 c0 -5 7 -7 15 -4 8 4 15 8 15 10 0 2 -7 4 -15 4 -8 0 -15
-4 -15 -10z"/>
<path d="M3368 2863 c7 -3 16 -2 19 1 4 3 -2 6 -13 5 -11 0 -14 -3 -6 -6z"/>
<path d="M3318 2843 c7 -3 16 -2 19 1 4 3 -2 6 -13 5 -11 0 -14 -3 -6 -6z"/>
<path d="M3503 2785 c-12 -8 -50 -30 -86 -49 l-64 -34 -72 35 -71 36 -24 -26
c-13 -15 -36 -29 -51 -33 -31 -8 -33 0 33 -159 27 -66 57 -151 67 -190 17 -68
34 -112 35 -88 0 6 7 54 16 105 14 83 14 102 1 172 l-15 78 26 -7 c15 -4 31
-7 36 -8 5 -1 18 15 29 36 12 21 24 33 27 27 4 -6 13 -10 21 -8 11 2 15 -16
17 -84 1 -49 7 -88 12 -88 36 0 100 151 103 246 2 52 -8 62 -40 39z"/>
<path d="M3604 2725 c31 -123 39 -183 40 -310 l1 -139 13 64 c8 36 15 121 15
190 2 114 0 128 -21 161 -12 20 -30 43 -39 50 -15 13 -16 11 -9 -16z"/>
<path d="M2900 2682 l-24 -20 18 -40 c10 -23 23 -39 29 -35 6 3 7 1 3 -5 -4
-7 11 -55 33 -107 l41 -95 -31 -126 c-18 -72 -28 -129 -23 -133 5 -5 28 0 52
10 l42 18 0 56 c0 56 13 73 24 33 3 -13 13 -31 20 -41 13 -17 18 -17 50 -6 20
7 36 18 36 23 0 25 -34 95 -43 89 -6 -3 -7 -1 -3 5 6 11 -20 109 -82 302 l-27
85 -46 3 c-33 2 -52 -2 -69 -16z"/>
<path d="M3631 2254 c0 -11 3 -14 6 -6 3 7 2 16 -1 19 -3 4 -6 -2 -5 -13z"/>
<path d="M3621 2214 c0 -11 3 -14 6 -6 3 7 2 16 -1 19 -3 4 -6 -2 -5 -13z"/>
<path d="M3321 2149 l-23 -19 30 -52 c25 -45 34 -53 62 -56 18 -2 44 -1 58 3
l26 6 -26 17 c-38 25 -81 71 -93 97 -10 24 -10 24 -34 4z"/>
<path d="M3188 2057 l-47 -32 -1 -80 c0 -44 -3 -195 -6 -335 -11 -538 -22
-1325 -17 -1333 2 -4 31 -7 64 -7 l59 0 0 43 c3 176 11 456 15 475 3 12 1 22
-5 22 -7 0 -7 7 1 21 8 16 11 166 9 543 -3 675 -5 637 20 643 19 5 18 7 -7 39
-14 19 -28 34 -32 34 -3 0 -27 -15 -53 -33z"/>
<path d="M2934 1881 l-81 -39 -7 -163 c-3 -90 -8 -276 -11 -414 -3 -137 -7
-308 -10 -380 -3 -71 -8 -259 -11 -418 -5 -241 -4 -287 7 -283 53 17 70 16 67
-1 -2 -10 -7 -21 -13 -25 -5 -4 16 -8 48 -9 31 -1 63 -2 70 -3 14 -1 17 26 4
35 -9 7 -11 226 -2 374 3 50 10 274 15 500 5 226 13 512 16 638 4 126 2 227
-2 226 -5 0 -46 -17 -90 -38z"/>
</g>
</svg>
